Patient4_TMGait_0pt4_01_left_16_GRF.mot
version=1
nRows=52
nColumns=19
inDegrees=no
endheader
time	F1x	F1y	F1z	M1x	M1y	M1z	F2x	F2y	F2z	M2x	M2y	M2z	EC1x	EC1y	EC1z	EC2x	EC2y	EC2z
20	-6.4668	14.0239	4.4632	-3.3666	-5.7817	14.2551	-38.1348	752.2415	-56.2458	319.2917	69.3736	758.0637	-0.0592	0.0182	-0.0073	-0.0462	0.0165	0.9585
20.0106	-3.9596	8.4003	3.4343	-1.7618	-4.0978	8.7427	-32.3662	754.7137	-58.8594	319.7796	70.2719	760.0912	-0.0592	0.0182	-0.0073	-0.0462	0.0165	0.9585
20.0213	-1.8614	3.7452	2.55	-0.4353	-2.664	4.1802	-27.262	756.6633	-61.0912	320.0317	70.8163	761.06	-0.0592	0.0182	-0.0073	-0.0462	0.0165	0.9585
20.0319	-0.26506	0.26683	1.8757	0.55488	-1.5662	0.76269	-23.0476	758.1267	-62.7872	320.0843	70.9228	761.0036	-0.0592	0.0182	-0.0073	-0.0462	0.0165	0.9585
20.0426	0.82413	-2.0558	1.4047	1.2194	-0.80179	-1.5141	-19.691	759.2496	-63.9446	320.0087	70.6077	760.1267	-0.0592	0.0182	-0.0073	-0.0462	0.0165	0.9585
20.0532	1.4933	-3.4269	1.1212	1.6172	-0.33301	-2.8593	-17.0669	760.1298	-64.6161	319.8547	69.9213	758.611	-0.0592	0.0182	-0.0073	-0.0462	0.0165	0.9585
20.0639	1.8309	-4.0863	0.9698	1.8157	-0.088689	-3.5009	-14.9601	760.8012	-64.9145	319.6349	68.9491	756.5863	-0.0592	0.0182	-0.0073	-0.0462	0.0165	0.9585
20.0745	1.9413	-4.2866	0.93423	1.885	-0.024269	-3.6955	-13.235	761.1141	-64.9389	319.2982	67.7797	753.9992	-0.0592	0.0182	-0.0073	-0.0462	0.0165	0.9585
20.0851	1.8971	-4.2643	0.97186	1.887	-0.081687	-3.6673	-11.7288	760.8957	-64.7676	318.7743	66.4755	750.7659	-0.0592	0.0182	-0.0073	-0.0462	0.0165	0.9585
20.0958	1.7574	-4.2112	1.0745	1.8753	-0.23628	-3.6184	-10.3663	759.8768	-64.4404	317.9643	65.0761	746.6851	-0.0592	0.0182	-0.0073	-0.0462	0.0165	0.9585
20.1064	1.5552	-4.3037	1.2177	1.9023	-0.4534	-3.7281	-9.0257	757.8685	-63.9678	316.7909	63.5731	741.5966	-0.0592	0.0182	-0.0073	-0.0462	0.0165	0.9585
20.1171	1.3154	-4.6493	1.3887	2.001	-0.71106	-4.1137	-7.6438	754.7218	-63.3746	315.1953	61.9772	735.3675	-0.0592	0.0182	-0.0073	-0.0462	0.0165	0.9585
20.1277	1.0607	-5.3464	1.5726	2.2003	-0.98159	-4.8709	-6.1358	750.4248	-62.7121	313.1697	60.3104	727.97	-0.0592	0.0182	-0.0073	-0.0462	0.0165	0.9585
20.1384	0.81973	-6.4193	1.7321	2.5085	-1.2216	-6.0253	-4.4311	745.121	-62.0516	310.7666	58.6089	719.5239	-0.0592	0.0182	-0.0073	-0.0462	0.0165	0.9585
20.149	0.63713	-7.8322	1.836	2.915	-1.3823	-7.5474	-2.4701	739.061	-61.4644	308.0869	56.9068	710.2408	-0.0592	0.0182	-0.0073	-0.0462	0.0165	0.9585
20.1596	0.57093	-9.4246	1.8075	3.3693	-1.3677	-9.2693	-0.17969	732.6361	-60.9944	305.2827	55.2143	700.468	-0.0592	0.0182	-0.0073	-0.0462	0.0165	0.9585
20.1703	0.70944	-10.8764	1.5714	3.7739	-1.069	-10.8635	2.4485	726.2058	-60.668	302.5049	53.5395	690.5117	-0.0592	0.0182	-0.0073	-0.0462	0.0165	0.9585
20.1809	1.1574	-11.6685	1.0065	3.9695	-0.33019	-11.7708	5.4746	720.168	-60.4895	299.9124	51.8562	680.7367	-0.0592	0.0182	-0.0073	-0.0462	0.0165	0.9585
20.1916	2.0538	-10.9806	-0.00056977	3.7114	1.0058	-11.1531	8.8844	714.8064	-60.4629	297.6268	50.1551	671.4065	-0.0592	0.0182	-0.0073	-0.0462	0.0165	0.9585
20.2022	3.5145	-7.7177	-1.5735	2.6759	3.0994	-7.8511	12.6998	710.3715	-60.6142	295.7477	48.4443	662.777	-0.0592	0.0182	-0.0073	-0.0462	0.0165	0.9585
20.2129	5.6499	-0.49129	-3.7768	0.45782	6.0442	-0.41491	16.8564	706.9547	-60.9528	294.3171	46.74	654.9784	-0.0592	0.0182	-0.0073	-0.0462	0.0165	0.9585
20.2235	8.4589	12.1985	-6.5711	-3.3761	9.7947	12.7607	21.2882	704.4979	-61.4919	293.3088	45.0699	648.0238	-0.0592	0.0182	-0.0073	-0.0462	0.0165	0.9585
20.2341	11.8055	31.7206	-9.7408	-9.2123	14.0756	33.1385	25.8249	702.7067	-62.182	292.5929	43.4504	641.7512	-0.0592	0.0182	-0.0073	-0.0462	0.0165	0.9585
20.2448	15.2506	58.8493	-12.7763	-17.2444	18.218	61.5865	30.2108	700.9208	-62.9415	291.887	41.919	635.6877	-0.0592	0.0182	-0.0073	-0.0462	0.0165	0.9585
20.2554	17.9424	93.2106	-14.918	-27.306	21.1631	97.7889	34.1034	698.1133	-63.6374	290.7467	40.5151	629.0891	-0.0592	0.0182	-0.0073	-0.0462	0.0165	0.9585
20.2661	18.7748	132.6186	-15.1902	-38.6823	21.5479	139.5319	37.1012	692.8718	-64.0845	288.5743	39.2601	620.8633	-0.0592	0.0182	-0.0073	-0.0462	0.0165	0.9585
20.2767	17.1823	173.103	-12.7577	-50.1577	18.3543	182.7107	38.8719	683.7469	-64.1288	284.7475	38.1862	609.8895	-0.0592	0.0182	-0.0073	-0.0462	0.0165	0.9585
20.2874	13.708	210.2237	-7.9569	-60.4645	12.1135	222.5576	39.1677	669.5611	-63.6203	278.7713	37.2868	595.221	-0.0592	0.0182	-0.0073	-0.0462	0.0165	0.9585
20.298	9.2726	240.8677	-1.7989	-68.7677	4.188	255.5879	37.9645	649.9077	-62.5328	270.4682	36.5774	576.5226	-0.0592	0.0182	-0.0073	-0.0462	0.0165	0.9585
20.3086	4.4834	264.8484	5.1065	-75.0558	-4.5632	281.4404	35.446	625.2461	-60.8919	260.0382	36.0249	554.1232	-0.0592	0.0182	-0.0073	-0.0462	0.0165	0.9585
20.3193	-0.37127	284.3972	12.2223	-80.0151	-13.4779	302.3961	32.0175	596.7827	-58.7575	247.9985	35.5247	528.9311	-0.0592	0.0182	-0.0073	-0.0462	0.0165	0.9585
20.3299	-5.0914	302.5905	19.0945	-84.577	-22.0113	321.6533	28.1942	565.9684	-56.2249	234.9784	34.9408	502.0256	-0.0592	0.0182	-0.0073	-0.0462	0.0165	0.9585
20.3406	-9.5575	322.1796	25.3113	-89.5744	-29.7061	342.1048	24.4795	534.0442	-53.3165	221.5298	34.0704	474.2897	-0.0592	0.0182	-0.0073	-0.0462	0.0165	0.9585
20.3512	-13.6885	344.846	30.5211	-95.525	-36.1891	365.4575	21.2619	501.8435	-50.0364	208.0211	32.7465	446.2957	-0.0592	0.0182	-0.0073	-0.0462	0.0165	0.9585
20.3619	-17.268	371.0251	34.5731	-102.5613	-41.2635	392.125	18.7711	469.6503	-46.3886	194.5901	30.8585	418.1726	-0.0592	0.0182	-0.0073	-0.0462	0.0165	0.9585
20.3725	-20.1609	400.1023	37.5307	-110.4877	-44.9677	421.4116	17.0858	437.4451	-42.3844	181.2239	28.3703	389.8613	-0.0592	0.0182	-0.0073	-0.0462	0.0165	0.9585
20.3831	-22.2635	430.9111	39.7503	-118.9174	-47.6441	452.0901	16.1149	404.9619	-38.0653	167.8052	25.3375	361.1265	-0.0592	0.0182	-0.0073	-0.0462	0.0165	0.9585
20.3938	-23.554	462.0351	41.7033	-127.3793	-49.7671	482.7323	15.7114	371.9467	-33.5221	154.2058	21.8871	331.7936	-0.0592	0.0182	-0.0073	-0.0462	0.0165	0.9585
20.4044	-24.0398	492.2542	43.8499	-135.4621	-51.8101	512.083	15.6308	338.182	-28.8597	140.3198	18.1876	301.7127	-0.0592	0.0182	-0.0073	-0.0462	0.0165	0.9585
20.4151	-23.782	520.6524	46.5494	-142.858	-54.1587	539.2556	15.6448	303.6453	-24.2058	126.1183	14.4311	270.9187	-0.0592	0.0182	-0.0073	-0.0462	0.0165	0.9585
20.4257	-22.924	546.7812	49.94	-149.4187	-57.0007	563.8056	15.5167	268.5173	-19.6784	111.6619	10.8057	239.6122	-0.0592	0.0182	-0.0073	-0.0462	0.0165	0.9585
20.4364	-21.6332	570.6455	54.0259	-155.1456	-60.394	585.8099	15.0731	233.2407	-15.3979	97.1222	7.4832	208.2143	-0.0592	0.0182	-0.0073	-0.0462	0.0165	0.9585
20.447	-20.0502	592.7104	58.6207	-160.1933	-64.1955	605.78	14.1947	198.4871	-11.4907	82.7708	4.6166	177.3317	-0.0592	0.0182	-0.0073	-0.0462	0.0165	0.9585
20.4576	-18.2694	613.691	63.4411	-164.8009	-68.1514	624.4774	12.8512	165.0686	-8.07	68.9425	2.3114	147.6719	-0.0592	0.0182	-0.0073	-0.0462	0.0165	0.9585
20.4683	-16.369	634.2466	68.2019	-169.2011	-71.9944	642.6024	11.1085	133.8755	-5.2366	56.0011	0.62636	120.0122	-0.0592	0.0182	-0.0073	-0.0462	0.0165	0.9585
20.4789	-14.4291	654.7521	72.6341	-173.549	-75.4784	660.5315	9.0948	105.666	-3.0414	44.2653	-0.44867	94.9927	-0.0592	0.0182	-0.0073	-0.0462	0.0165	0.9585
20.4896	-12.5128	675.215	76.6252	-177.8876	-78.5048	678.2973	6.9983	81.0045	-1.4676	33.9705	-0.99858	73.0991	-0.0592	0.0182	-0.0073	-0.0462	0.0165	0.9585
20.5002	-10.674	695.3733	80.0993	-182.1776	-81.0139	695.646	4.975	60.091	-0.43	25.2166	-1.1519	54.4837	-0.0592	0.0182	-0.0073	-0.0462	0.0165	0.9585
20.5109	-8.9804	714.7053	83.0772	-186.2972	-83.0499	712.0882	3.1595	42.8947	0.18925	18.0005	-1.0494	39.1238	-0.0592	0.0182	-0.0073	-0.0462	0.0165	0.9585
20.5215	-7.4613	732.6367	85.5656	-190.1085	-84.6416	727.076	1.6121	29.1474	0.52188	12.2271	-0.81707	26.7774	-0.0592	0.0182	-0.0073	-0.0462	0.0165	0.9585
20.5321	-6.1147	748.5998	87.5404	-193.4768	-85.7831	740.0467	0.3885	18.5109	0.65366	7.7606	-0.53483	17.1673	-0.0592	0.0182	-0.0073	-0.0462	0.0165	0.9585
20.5428	-4.8749	762.2309	88.9911	-196.3218	-86.4582	750.6308	-0.46891	10.5821	0.64799	4.4354	-0.26196	9.9524	-0.0592	0.0182	-0.0073	-0.0462	0.0165	0.9585
